
<svg width="22" height="22" viewBox="0 0 22 22" fill="none" xmlns="http://www.w3.org/2000/svg">
<path fill-rule="evenodd" clip-rule="evenodd" d="M11 2.00049C6.02944 2.00049 2 6.02993 2 11.0005C2 15.9711 6.02944 20.0005 11 20.0005C15.9706 20.0005 20 15.9711 20 11.0005C20 6.02993 15.9706 2.00049 11 2.00049ZM0 11.0005C0 4.92536 4.92487 0.000488281 11 0.000488281C17.0751 0.000488281 22 4.92536 22 11.0005C22 17.0756 17.0751 22.0005 11 22.0005C4.92487 22.0005 0 17.0756 0 11.0005ZM9.66667 13.0005C8.74619 13.0005 8 13.7467 8 14.6672C8 14.8512 8.14924 15.0005 8.33333 15.0005H13.6667C13.8508 15.0005 14 14.8512 14 14.6672C14 13.7467 13.2538 13.0005 12.3333 13.0005H9.66667ZM6 14.6672C6 12.6421 7.64162 11.0005 9.66667 11.0005H12.3333C14.3584 11.0005 16 12.6421 16 14.6672C16 15.9558 14.9553 17.0005 13.6667 17.0005H8.33333C7.04467 17.0005 6 15.9558 6 14.6672ZM10 7.00049C10 6.4482 10.4477 6.00049 11 6.00049C11.5523 6.00049 12 6.4482 12 7.00049C12 7.55277 11.5523 8.00049 11 8.00049C10.4477 8.00049 10 7.55277 10 7.00049ZM11 4.00049C9.34315 4.00049 8 5.34363 8 7.00049C8 8.65734 9.34315 10.0005 11 10.0005C12.6569 10.0005 14 8.65734 14 7.00049C14 5.34363 12.6569 4.00049 11 4.00049Z" fill="#FF8840"/>
</svg>
